<svg width="21" height="20" viewBox="0 0 21 20" fill="none" xmlns="http://www.w3.org/2000/svg">
<path d="M10.803 6.59091C11.5598 6.59091 12.1666 5.97727 12.1666 5.22727C12.1666 4.96818 12.0984 4.72955 11.9689 4.525L10.803 2.5L9.63708 4.525C9.50754 4.72955 9.43935 4.96818 9.43935 5.22727C9.43935 5.97727 10.053 6.59091 10.803 6.59091ZM14.8939 8.63636H11.4848V7.27273H10.1212V8.63636H6.71208C5.58026 8.63636 4.66663 9.55 4.66663 10.6818V16.8182C4.66663 17.1932 4.97344 17.5 5.34844 17.5H16.2575C16.6325 17.5 16.9394 17.1932 16.9394 16.8182V10.6818C16.9394 9.55 16.0257 8.63636 14.8939 8.63636ZM15.5757 16.1364H6.03026V14.0909C6.6439 14.0841 7.23026 13.8386 7.66663 13.4023L8.40981 12.6727L9.13935 13.4023C10.0325 14.2955 11.5871 14.2886 12.4734 13.4023L13.2098 12.6727L13.9394 13.4023C14.3757 13.8386 14.9621 14.0841 15.5757 14.0909V16.1364ZM15.5757 13.0682C15.228 13.0614 14.9007 12.9318 14.6553 12.6795L13.203 11.2273L11.7439 12.6795C11.2394 13.1841 10.3598 13.1841 9.85526 12.6795L8.40299 11.2273L6.9439 12.6795C6.70526 12.925 6.37799 13.0614 6.03026 13.0682V10.6818C6.03026 10.3068 6.33708 10 6.71208 10H14.8939C15.2689 10 15.5757 10.3068 15.5757 10.6818V13.0682Z" fill="#498500"/>
</svg>
