<svg width="38" height="46" viewBox="0 0 38 46" fill="none" xmlns="http://www.w3.org/2000/svg">
<path d="M18.9091 12.7727C21.1795 12.7727 23 10.9318 23 8.68182C23 7.90455 22.7955 7.18864 22.4068 6.575L18.9091 0.5L15.4114 6.575C15.0227 7.18864 14.8182 7.90455 14.8182 8.68182C14.8182 10.9318 16.6591 12.7727 18.9091 12.7727ZM31.1818 18.9091H20.9545V14.8182H16.8636V18.9091H6.63636C3.24091 18.9091 0.5 21.65 0.5 25.0455V43.4545C0.5 44.5795 1.42045 45.5 2.54545 45.5H35.2727C36.3977 45.5 37.3182 44.5795 37.3182 43.4545V25.0455C37.3182 21.65 34.5773 18.9091 31.1818 18.9091ZM33.2273 41.4091H4.59091V35.2727C6.43182 35.2523 8.19091 34.5159 9.5 33.2068L11.7295 31.0182L13.9182 33.2068C16.5977 35.8864 21.2614 35.8659 23.9205 33.2068L26.1295 31.0182L28.3182 33.2068C29.6273 34.5159 31.3864 35.2523 33.2273 35.2727V41.4091ZM33.2273 32.2045C32.1841 32.1841 31.2023 31.7955 30.4659 31.0386L26.1091 26.6818L21.7318 31.0386C20.2182 32.5523 17.5795 32.5523 16.0659 31.0386L11.7091 26.6818L7.33182 31.0386C6.61591 31.775 5.63409 32.1841 4.59091 32.2045V25.0455C4.59091 23.9205 5.51136 23 6.63636 23H31.1818C32.3068 23 33.2273 23.9205 33.2273 25.0455V32.2045Z" fill="#F5FAEB"/>
</svg>
