<svg width="13" height="16" viewBox="0 0 13 16" fill="none" xmlns="http://www.w3.org/2000/svg">
<path d="M6.30311 4.59091C7.05993 4.59091 7.66675 3.97727 7.66675 3.22727C7.66675 2.96818 7.59857 2.72955 7.46902 2.525L6.30311 0.5L5.1372 2.525C5.00766 2.72955 4.93948 2.96818 4.93948 3.22727C4.93948 3.97727 5.55311 4.59091 6.30311 4.59091ZM10.394 6.63636H6.98493V5.27273H5.62129V6.63636H2.2122C1.08038 6.63636 0.166748 7.55 0.166748 8.68182V14.8182C0.166748 15.1932 0.473566 15.5 0.848566 15.5H11.7577C12.1327 15.5 12.4395 15.1932 12.4395 14.8182V8.68182C12.4395 7.55 11.5258 6.63636 10.394 6.63636ZM11.0758 14.1364H1.53038V12.0909C2.14402 12.0841 2.73038 11.8386 3.16675 11.4023L3.90993 10.6727L4.63948 11.4023C5.53266 12.2955 7.0872 12.2886 7.97357 11.4023L8.70993 10.6727L9.43948 11.4023C9.87584 11.8386 10.4622 12.0841 11.0758 12.0909V14.1364ZM11.0758 11.0682C10.7281 11.0614 10.4008 10.9318 10.1554 10.6795L8.70311 9.22727L7.24402 10.6795C6.73948 11.1841 5.85993 11.1841 5.35538 10.6795L3.90311 9.22727L2.44402 10.6795C2.20538 10.925 1.87811 11.0614 1.53038 11.0682V8.68182C1.53038 8.30682 1.8372 8 2.2122 8H10.394C10.769 8 11.0758 8.30682 11.0758 8.68182V11.0682Z" fill="white"/>
</svg>
