<svg width="24" height="24" viewBox="0 0 24 24" fill="none" xmlns="http://www.w3.org/2000/svg">
<path d="M12.3636 7.90909C13.2718 7.90909 14 7.17273 14 6.27273C14 5.96182 13.9182 5.67545 13.7627 5.43L12.3636 3L10.9645 5.43C10.8091 5.67545 10.7273 5.96182 10.7273 6.27273C10.7273 7.17273 11.4636 7.90909 12.3636 7.90909ZM17.2727 10.3636H13.1818V8.72727H11.5455V10.3636H7.45455C6.09636 10.3636 5 11.46 5 12.8182V20.1818C5 20.6318 5.36818 21 5.81818 21H18.9091C19.3591 21 19.7273 20.6318 19.7273 20.1818V12.8182C19.7273 11.46 18.6309 10.3636 17.2727 10.3636ZM18.0909 19.3636H6.63636V16.9091C7.37273 16.9009 8.07636 16.6064 8.6 16.0827L9.49182 15.2073L10.3673 16.0827C11.4391 17.1545 13.3045 17.1464 14.3682 16.0827L15.2518 15.2073L16.1273 16.0827C16.6509 16.6064 17.3545 16.9009 18.0909 16.9091V19.3636ZM18.0909 15.6818C17.6736 15.6736 17.2809 15.5182 16.9864 15.2155L15.2436 13.4727L13.4927 15.2155C12.8873 15.8209 11.8318 15.8209 11.2264 15.2155L9.48364 13.4727L7.73273 15.2155C7.44636 15.51 7.05364 15.6736 6.63636 15.6818V12.8182C6.63636 12.3682 7.00455 12 7.45455 12H17.2727C17.7227 12 18.0909 12.3682 18.0909 12.8182V15.6818Z" fill="#1F252D"/>
</svg>
