<svg width="13" height="16" viewBox="0 0 13 16" fill="none" xmlns="http://www.w3.org/2000/svg">
<path d="M6.30299 4.59091C7.05981 4.59091 7.66663 3.97727 7.66663 3.22727C7.66663 2.96818 7.59844 2.72955 7.4689 2.525L6.30299 0.5L5.13708 2.525C5.00754 2.72955 4.93935 2.96818 4.93935 3.22727C4.93935 3.97727 5.55299 4.59091 6.30299 4.59091ZM10.3939 6.63636H6.98481V5.27273H5.62117V6.63636H2.21208C1.08026 6.63636 0.166626 7.55 0.166626 8.68182V14.8182C0.166626 15.1932 0.473444 15.5 0.848444 15.5H11.7575C12.1325 15.5 12.4394 15.1932 12.4394 14.8182V8.68182C12.4394 7.55 11.5257 6.63636 10.3939 6.63636ZM11.0757 14.1364H1.53026V12.0909C2.1439 12.0841 2.73026 11.8386 3.16663 11.4023L3.90981 10.6727L4.63935 11.4023C5.53254 12.2955 7.08708 12.2886 7.97344 11.4023L8.70981 10.6727L9.43935 11.4023C9.87572 11.8386 10.4621 12.0841 11.0757 12.0909V14.1364ZM11.0757 11.0682C10.728 11.0614 10.4007 10.9318 10.1553 10.6795L8.70299 9.22727L7.2439 10.6795C6.73935 11.1841 5.85981 11.1841 5.35526 10.6795L3.90299 9.22727L2.4439 10.6795C2.20526 10.925 1.87799 11.0614 1.53026 11.0682V8.68182C1.53026 8.30682 1.83708 8 2.21208 8H10.3939C10.7689 8 11.0757 8.30682 11.0757 8.68182V11.0682Z" fill="#498500"/>
</svg>
