<svg width="24" height="24" viewBox="0 0 24 24" fill="none" xmlns="http://www.w3.org/2000/svg">
<path fill-rule="evenodd" clip-rule="evenodd" d="M16.6364 2.90909C16.6364 2.40701 16.2294 2 15.7273 2C15.2252 2 14.8182 2.40701 14.8182 2.90909V3.81818H9.36364V2.90909C9.36364 2.40701 8.95662 2 8.45455 2C7.95247 2 7.54545 2.40701 7.54545 2.90909V3.81818H5.72727C4.22104 3.81818 3 5.03922 3 6.54545V10.1818V19.2727C3 20.779 4.22104 22 5.72727 22H18.4545C19.9608 22 21.1818 20.779 21.1818 19.2727V10.1818V6.54545C21.1818 5.03922 19.9608 3.81818 18.4545 3.81818H16.6364V2.90909ZM19.3636 9.27273V6.54545C19.3636 6.04338 18.9566 5.63636 18.4545 5.63636H16.6364V6.54545C16.6364 7.04753 16.2294 7.45455 15.7273 7.45455C15.2252 7.45455 14.8182 7.04753 14.8182 6.54545V5.63636H9.36364V6.54545C9.36364 7.04753 8.95662 7.45455 8.45455 7.45455C7.95247 7.45455 7.54545 7.04753 7.54545 6.54545V5.63636H5.72727C5.2252 5.63636 4.81818 6.04338 4.81818 6.54545V9.27273H19.3636ZM4.81818 11.0909H19.3636V19.2727C19.3636 19.7748 18.9566 20.1818 18.4545 20.1818H5.72727C5.2252 20.1818 4.81818 19.7748 4.81818 19.2727V11.0909Z" fill="#1F252D"/>
</svg>
