<svg width="20" height="20" viewBox="0 0 20 20" fill="none" xmlns="http://www.w3.org/2000/svg">
<path fill-rule="evenodd" clip-rule="evenodd" d="M13.8636 2.42432C13.8636 2.00593 13.5245 1.66675 13.1061 1.66675C12.6877 1.66675 12.3485 2.00593 12.3485 2.42432V3.1819H7.80304V2.42432C7.80304 2.00593 7.46386 1.66675 7.04546 1.66675C6.62706 1.66675 6.28789 2.00593 6.28789 2.42432V3.1819H4.77273C3.51753 3.1819 2.5 4.19944 2.5 5.45463V8.48493V16.0607C2.5 17.3159 3.51753 18.3334 4.77273 18.3334H15.3788C16.634 18.3334 17.6515 17.3159 17.6515 16.0607V8.48493V5.45463C17.6515 4.19944 16.634 3.1819 15.3788 3.1819H13.8636V2.42432ZM16.1364 7.72736V5.45463C16.1364 5.03623 15.7972 4.69705 15.3788 4.69705H13.8636V5.45463C13.8636 5.87302 13.5245 6.2122 13.1061 6.2122C12.6877 6.2122 12.3485 5.87302 12.3485 5.45463V4.69705H7.80304V5.45463C7.80304 5.87302 7.46386 6.2122 7.04546 6.2122C6.62706 6.2122 6.28789 5.87302 6.28789 5.45463V4.69705H4.77273C4.35433 4.69705 4.01515 5.03623 4.01515 5.45463V7.72736H16.1364ZM4.01515 9.24251H16.1364V16.0607C16.1364 16.4791 15.7972 16.8183 15.3788 16.8183H4.77273C4.35433 16.8183 4.01515 16.4791 4.01515 16.0607V9.24251Z" fill="#498500"/>
</svg>
