<svg width="16" height="18" viewBox="0 0 16 18" fill="none" xmlns="http://www.w3.org/2000/svg">
<path fill-rule="evenodd" clip-rule="evenodd" d="M11.3636 1.4242C11.3636 1.0058 11.0244 0.666626 10.6061 0.666626C10.1877 0.666626 9.84848 1.0058 9.84848 1.4242V2.18178H5.30304V1.4242C5.30304 1.0058 4.96386 0.666626 4.54546 0.666626C4.12706 0.666626 3.78789 1.0058 3.78789 1.4242V2.18178H2.27273C1.01753 2.18178 0 3.19931 0 4.45451V7.48481V15.0606C0 16.3158 1.01753 17.3333 2.27273 17.3333H12.8788C14.134 17.3333 15.1515 16.3158 15.1515 15.0606V7.48481V4.45451C15.1515 3.19931 14.134 2.18178 12.8788 2.18178H11.3636V1.4242ZM13.6364 6.72724V4.45451C13.6364 4.03611 13.2972 3.69693 12.8788 3.69693H11.3636V4.4545C11.3636 4.8729 11.0244 5.21208 10.6061 5.21208C10.1877 5.21208 9.84848 4.8729 9.84848 4.4545V3.69693H5.30304V4.4545C5.30304 4.8729 4.96386 5.21208 4.54546 5.21208C4.12706 5.21208 3.78789 4.8729 3.78789 4.4545V3.69693H2.27273C1.85433 3.69693 1.51515 4.03611 1.51515 4.45451V6.72724H13.6364ZM1.51515 8.24239H13.6364V15.0606C13.6364 15.479 13.2972 15.8181 12.8788 15.8181H2.27273C1.85433 15.8181 1.51515 15.479 1.51515 15.0606V8.24239Z" fill="white"/>
</svg>
