<svg width="45" height="45" viewBox="0 0 45 45" fill="none" xmlns="http://www.w3.org/2000/svg">
<g clip-path="url(#clip0)">
<path d="M44.9937 24.4214C44.9304 22.9349 42.6163 22.9287 42.6795 24.4214C42.7103 25.1473 42.7165 26.0152 42.023 26.4356C41.6127 26.6848 41.0834 26.6971 40.5582 26.6207V22.3857C39.5114 22.8856 37.9138 23.2875 35.6551 23.6385C32.0743 24.1955 27.4397 24.5025 22.5706 24.5025C17.6868 24.5025 13.151 24.2147 9.7321 23.6933C6.92884 23.2652 5.20014 22.746 4.30219 22.0339V26.6384C3.82389 26.6924 3.35025 26.6631 2.97691 26.4363C2.28338 26.0159 2.28955 25.148 2.32048 24.4221C2.38378 22.9294 0.0695442 22.9356 0.00624572 24.4221C-0.0570528 25.9148 0.347981 27.6936 1.80897 28.4342C2.60585 28.8384 3.45207 28.9564 4.30295 28.9117V36.2639C4.30219 41.0667 8.30575 44.9599 13.2443 44.9599H31.8737C36.8114 44.9599 40.5582 41.0667 40.5582 36.2639V28.9024C41.4561 28.9688 42.3509 28.86 43.191 28.4334C44.652 27.693 45.057 25.9141 44.9937 24.4214ZM31.8398 41.434C29.9706 42.1291 29.1715 39.1461 31.0197 38.4587C34.8405 37.0378 33.7328 29.9655 33.6156 26.8321C33.5415 24.8411 36.6271 24.8488 36.7011 26.8321C36.8878 31.8331 37.6253 39.2825 31.8398 41.434Z" fill="#F5FAEB"/>
<path d="M4.53901 20.5507C4.53901 20.7212 4.63618 20.8863 4.81213 21.0468C6.29086 22.3928 13.7072 23.3448 22.5336 23.3448C31.1309 23.3448 38.7323 22.3605 40.5582 21.0483C40.8297 20.8531 40.9763 20.651 40.9763 20.4427C40.9763 18.1941 40.9694 16.3465 32.3929 15.6284C32.8527 15.9054 33.091 16.406 33.0779 16.8766C33.0617 17.489 32.6366 18.1478 31.7425 18.1478L31.6461 18.1447C29.9444 18.0522 28.5682 17.452 27.3154 16.2571C27.1318 16.0812 26.973 15.9215 26.8263 15.7757C26.6621 15.6114 26.5186 15.4718 26.3774 15.343C25.1909 15.3183 23.9204 15.3044 22.5334 15.3044C21.7628 15.3044 21.0369 15.3099 20.3311 15.3183C20.1375 15.4934 19.9415 15.6808 19.7324 15.8853L19.3498 16.2564C18.0978 17.452 16.7224 18.0522 15.0199 18.1448L14.9235 18.1479C14.0294 18.1479 13.6044 17.4891 13.5881 16.8767C13.5727 16.3282 13.8959 15.7404 14.5177 15.5128C4.3084 16.1453 4.53901 18.157 4.53901 20.5507Z" fill="#F5FAEB"/>
<path d="M18.4899 14.1913C18.3904 14.287 18.2909 14.3826 18.1937 14.4775C18.088 14.5816 17.9809 14.6858 17.8729 14.7892C17.6522 14.999 17.4224 15.2027 17.1732 15.3878C16.607 15.8097 15.9381 16.133 15.0194 16.1832C14.4841 16.2125 14.4409 16.619 14.4471 16.8551C14.451 16.9754 14.3376 17.3627 15.0719 17.3743C16.5985 17.2894 17.7356 16.7734 18.8602 15.6988L19.2143 15.3339C19.4241 15.1287 19.6278 14.9343 19.8337 14.7468C20.0721 14.5301 20.3158 14.3311 20.5734 14.1575C20.9661 13.8929 21.3927 13.6854 21.9072 13.582C22.0622 13.5581 22.208 13.5465 22.3554 13.5335C22.4287 13.5265 22.5073 13.5134 22.5791 13.5095C22.6654 13.5049 22.748 13.5095 22.8328 13.508C23.0249 13.5049 23.2177 13.5073 23.4083 13.5211C23.6274 13.5366 23.8487 13.562 24.0748 13.5983C24.2082 13.6191 24.3455 13.6453 24.4844 13.6723C24.5214 13.6792 24.5561 13.6846 24.5931 13.6923C25.2504 13.835 25.7094 13.9901 26.0742 14.1791C26.396 14.3457 26.6466 14.5393 26.902 14.7738C27.0516 14.9111 27.2036 15.0631 27.3717 15.232C27.4141 15.2744 27.4689 15.3276 27.5145 15.3723C27.6202 15.4772 27.722 15.5806 27.8477 15.7002C28.9748 16.7755 30.324 17.2924 31.8529 17.3757L32.0473 17.7182L32.0727 17.7629V17.712V17.3772C32.0727 17.3772 32.4684 16.9784 32.4723 16.8557C32.4785 16.6197 32.264 16.2132 31.7279 16.1838C30.8555 16.136 30.1975 15.8413 29.639 15.4518C29.3675 15.262 29.1175 15.0521 28.8822 14.8324C28.7565 14.7151 28.633 14.5963 28.512 14.4783C28.4286 14.3965 28.3292 14.3155 28.2412 14.2322C28.0592 14.0625 27.8802 13.8912 27.6842 13.727C26.9684 13.1283 26.1784 12.7589 25.3152 12.5876C25.313 12.5868 25.313 12.5853 25.3106 12.5853C25.3067 12.5845 25.3029 12.5845 25.299 12.5838C25.1972 12.5621 25.0899 12.5522 24.9858 12.5344C24.8138 12.5044 24.6433 12.4728 24.4666 12.4519C24.2869 12.4311 24.1041 12.4225 23.922 12.4117C23.5494 12.3886 23.1761 12.3839 22.8043 12.3994C22.633 12.4071 22.4648 12.4179 22.2966 12.4334C22.0737 12.4534 21.85 12.4735 21.6341 12.5074C21.597 12.5136 21.5724 12.5328 21.5415 12.5452C20.6089 12.6963 19.7704 13.0844 19.0013 13.7277C18.8208 13.8789 18.6534 14.0347 18.4899 14.1913Z" fill="#F5FAEB"/>
<path d="M13.7657 0.379982C12.7151 1.70678 12.3842 2.97807 13.0668 4.55948C13.805 6.26892 15.5546 7.36739 14.5942 9.41705C14.0604 10.5564 15.7528 11.5546 16.2898 10.4083C17.0056 8.88086 17.0349 7.49855 16.2813 5.98432C15.5724 4.56034 13.88 3.37855 15.1543 1.76856C15.9318 0.787294 14.5518 -0.61277 13.7657 0.379982Z" fill="#F5FAEB"/>
<path d="M20.6397 0.379982C19.5891 1.70678 19.2582 2.97807 19.9409 4.55948C20.6791 6.26892 22.4287 7.36739 21.4683 9.41705C20.9345 10.5564 22.6269 11.5546 23.1639 10.4083C23.8797 8.88086 23.909 7.49855 23.1554 5.98432C22.4465 4.56034 20.7541 3.37855 22.0284 1.76856C22.8058 0.787294 21.4258 -0.61277 20.6397 0.379982Z" fill="#F5FAEB"/>
<path d="M27.5145 0.379982C26.4638 1.70678 26.1329 2.97807 26.8156 4.55948C27.5539 6.26892 29.3034 7.36739 28.343 9.41705C27.8092 10.5564 29.5017 11.5546 30.0386 10.4083C30.7545 8.88086 30.7838 7.49855 30.0302 5.98432C29.3213 4.56034 27.6288 3.37855 28.9031 1.76856C29.6806 0.787294 28.3005 -0.61277 27.5145 0.379982Z" fill="#F5FAEB"/>
</g>
<defs>
<clipPath id="clip0">
<rect width="45" height="45" fill="white"/>
</clipPath>
</defs>
</svg>
