<svg width="17" height="12" viewBox="0 0 17 12" fill="none" xmlns="http://www.w3.org/2000/svg">
<path d="M14.3332 1.83329C14.3332 0.916626 13.5832 0.166626 12.6665 0.166626H10.1665V1.83329H12.6665V4.04163L9.7665 7.66663H6.83317V3.49996H3.49984C1.65817 3.49996 0.166504 4.99163 0.166504 6.83329V9.33329H1.83317C1.83317 10.7166 2.94984 11.8333 4.33317 11.8333C5.7165 11.8333 6.83317 10.7166 6.83317 9.33329H10.5665L14.3332 4.62496V1.83329ZM1.83317 7.66663V6.83329C1.83317 5.91663 2.58317 5.16663 3.49984 5.16663H5.1665V7.66663H1.83317ZM4.33317 10.1666C3.87484 10.1666 3.49984 9.79163 3.49984 9.33329H5.1665C5.1665 9.79163 4.7915 10.1666 4.33317 10.1666Z" fill="white"/>
<path d="M6.83317 1H2.6665V2.66667H6.83317V1Z" fill="white"/>
<path d="M14.333 6.83325C12.9497 6.83325 11.833 7.94992 11.833 9.33325C11.833 10.7166 12.9497 11.8333 14.333 11.8333C15.7163 11.8333 16.833 10.7166 16.833 9.33325C16.833 7.94992 15.7163 6.83325 14.333 6.83325ZM14.333 10.1666C13.8747 10.1666 13.4997 9.79159 13.4997 9.33325C13.4997 8.87492 13.8747 8.49992 14.333 8.49992C14.7913 8.49992 15.1663 8.87492 15.1663 9.33325C15.1663 9.79159 14.7913 10.1666 14.333 10.1666Z" fill="white"/>
</svg>
