<svg width="24" height="24" viewBox="0 0 24 24" fill="none" xmlns="http://www.w3.org/2000/svg">
<path fill-rule="evenodd" clip-rule="evenodd" d="M10.8924 4.43784C11.813 3.51721 13.0617 3 14.3636 3H16.8182C17.2701 3 17.6364 3.36631 17.6364 3.81818V7.09091C17.6364 7.54278 17.2701 7.90909 16.8182 7.90909H14.3636V9.54545H16.8182C17.0701 9.54545 17.308 9.66153 17.4631 9.86012C17.6181 10.0587 17.673 10.3177 17.6119 10.5621L16.7938 13.8348C16.7027 14.199 16.3754 14.4545 16 14.4545H14.3636V20.1818C14.3636 20.6337 13.9973 21 13.5455 21H10.2727C9.82086 21 9.45455 20.6337 9.45455 20.1818V14.4545H7.81818C7.36631 14.4545 7 14.0882 7 13.6364V10.3636C7 9.91177 7.36631 9.54545 7.81818 9.54545H9.45455V7.90909C9.45455 6.60712 9.97175 5.35847 10.8924 4.43784ZM14.3636 4.63636C13.4957 4.63636 12.6632 4.98117 12.0495 5.59492C11.4357 6.20868 11.0909 7.04111 11.0909 7.90909V10.3636C11.0909 10.8155 10.7246 11.1818 10.2727 11.1818H8.63636V12.8182H10.2727C10.7246 12.8182 11.0909 13.1845 11.0909 13.6364V19.3636H12.7273V13.6364C12.7273 13.1845 13.0936 12.8182 13.5455 12.8182H15.3612L15.7703 11.1818H13.5455C13.0936 11.1818 12.7273 10.8155 12.7273 10.3636V7.90909C12.7273 7.4751 12.8997 7.05888 13.2066 6.75201C13.5134 6.44513 13.9296 6.27273 14.3636 6.27273H16V4.63636H14.3636Z" fill="#1F252D"/>
</svg>
