<svg width="24" height="24" viewBox="0 0 24 24" fill="none" xmlns="http://www.w3.org/2000/svg">
<path fill-rule="evenodd" clip-rule="evenodd" d="M7.90909 4.63636C6.10161 4.63636 4.63636 6.10161 4.63636 7.90909V16.0909C4.63636 17.8984 6.10161 19.3636 7.90909 19.3636H16.0909C17.8984 19.3636 19.3636 17.8984 19.3636 16.0909V7.90909C19.3636 6.10161 17.8984 4.63636 16.0909 4.63636H7.90909ZM3 7.90909C3 5.19787 5.19787 3 7.90909 3H16.0909C18.8021 3 21 5.19787 21 7.90909V16.0909C21 18.8021 18.8021 21 16.0909 21H7.90909C5.19787 21 3 18.8021 3 16.0909V7.90909ZM12.3955 9.53662C11.8848 9.46089 11.3632 9.54812 10.9049 9.7859C10.4467 10.0237 10.075 10.3999 9.84293 10.8611C9.61082 11.3222 9.53003 11.8448 9.61205 12.3546C9.69407 12.8643 9.93473 13.3352 10.2998 13.7002C10.6649 14.0653 11.1357 14.306 11.6455 14.388C12.1552 14.47 12.6778 14.3892 13.139 14.1571C13.6001 13.925 13.9763 13.5534 14.2141 13.0951C14.4519 12.6368 14.5391 12.1153 14.4634 11.6046C14.3862 11.0836 14.1434 10.6014 13.771 10.229C13.3987 9.85661 12.9164 9.61386 12.3955 9.53662ZM10.1513 8.33343C10.915 7.93712 11.7843 7.79174 12.6355 7.91795C13.5037 8.0467 14.3075 8.45127 14.9281 9.0719C15.5488 9.69254 15.9533 10.4963 16.0821 11.3645C16.2083 12.2157 16.0629 13.085 15.6666 13.8488C15.2703 14.6125 14.6433 15.2319 13.8747 15.6188C13.1061 16.0056 12.235 16.1403 11.3855 16.0036C10.536 15.8669 9.75115 15.4658 9.14271 14.8573C8.53427 14.2489 8.13317 13.4641 7.99647 12.6145C7.85976 11.765 7.99442 10.894 8.38128 10.1254C8.76814 9.35678 9.3875 8.72973 10.1513 8.33343ZM16.4999 6.68179C16.048 6.68179 15.6817 7.04811 15.6817 7.49998C15.6817 7.95184 16.048 8.31816 16.4999 8.31816H16.5081C16.96 8.31816 17.3263 7.95184 17.3263 7.49998C17.3263 7.04811 16.96 6.68179 16.5081 6.68179H16.4999Z" fill="#1F252D"/>
</svg>
