<svg width="69" height="125" viewBox="0 0 69 125" fill="none" xmlns="http://www.w3.org/2000/svg">
<path d="M39.1671 30.5832L37.9342 28.5283C38.0438 28.5283 39.1671 25.9254 40.948 22.5006C41.633 21.4047 43.0303 19.0758 44.7838 16.8839C46.5373 14.692 47.615 14.0527 47.9347 14.0071C48.163 14.5551 48.4826 15.788 47.9347 16.336C47.2497 17.0209 44.5099 19.6238 42.044 23.4596C40.0713 26.5282 39.3041 29.4872 39.1671 30.5832Z" fill="#498500"/>
<path d="M59.6502 2.63131C60.1871 4.06107 59.068 6.85792 58.4414 8.07763L61.3484 5.64704L64.4049 7.00531L63.5893 10.2964C62.7307 10.1446 60.388 9.94638 57.8866 10.3679C55.3852 10.7894 52.9074 12.6176 51.9812 13.4789C52.3249 13.4525 53.8059 13.1014 56.9798 11.9089C60.1536 10.7163 63.711 12.6299 65.0929 13.7358C64.792 13.8134 63.906 14.1541 62.7697 14.8955C61.3493 15.8222 59.3781 17.7311 55.2493 19.3568C51.9462 20.6574 49.044 18.7179 48.0058 17.5855C46.9579 16.1134 45.3474 12.5025 47.2887 9.8357C49.7153 6.50225 53.165 5.70529 54.5523 5.0672C55.9397 4.4291 58.3582 3.71157 59.6502 2.63131Z" fill="#498500"/>
<path d="M23.7395 15.5974L23.76 15.633L23.7956 15.6124L26.7213 13.9209L26.7569 13.9003L26.7363 13.8647L25.9134 12.4416C25.6727 12.0252 25.1043 11.9124 24.648 12.1763L23.3181 12.9452C22.8617 13.2091 22.6759 13.7579 22.9166 14.1743L23.7395 15.5974ZM23.4964 13.2536L24.8262 12.4847C25.1043 12.3239 25.4383 12.3979 25.5763 12.6365L26.2414 13.7869L23.9189 15.1297L23.2537 13.9794C23.1158 13.7407 23.2183 13.4143 23.4964 13.2536Z" fill="#498500" stroke="#498500" stroke-width="0.0821956"/>
<path d="M23.3725 15.8564L27.1439 13.6759C27.2339 13.6238 27.3641 13.6624 27.4311 13.7781L39.9121 35.3647C39.9791 35.4804 39.9475 35.6126 39.8575 35.6646L36.0861 37.8452C35.9961 37.8972 35.8658 37.8587 35.7989 37.7429L23.3178 16.1564C23.2508 16.0406 23.2824 15.9085 23.3725 15.8564ZM23.1945 15.5486C22.9423 15.6944 22.8803 16.0406 23.0401 16.3169L35.5212 37.9035C35.681 38.1798 36.0119 38.2988 36.2641 38.153L40.0355 35.9724C40.2876 35.8266 40.3496 35.4805 40.1898 35.2041L27.7087 13.6176C27.5489 13.3412 27.218 13.2222 26.9659 13.368L23.1945 15.5486Z" fill="#498500" stroke="#498500" stroke-width="0.0821956"/>
<rect x="24.2431" y="15.1482" width="1.84415" height="25.7546" transform="rotate(-30.036 24.2431 15.1482)" fill="#498500" stroke="#498500" stroke-width="0.273985"/>
<path fill-rule="evenodd" clip-rule="evenodd" d="M40.3164 35.4435C40.9863 36.6478 42.818 39.4704 44.7829 41.1379C45.2072 41.4979 45.8329 42.0104 46.5964 42.6358L46.5965 42.6359L46.5965 42.6359C48.0471 43.8241 49.9953 45.4199 52.0049 47.1518C55.0758 49.7986 58.317 52.7858 60.2093 55.1799C62.1162 57.5925 63.078 61.071 62.9575 64.3078C62.8399 67.4671 61.6887 70.4304 59.335 71.9428C59.3123 71.9603 59.2885 71.9765 59.2636 71.9914C59.2473 72.0012 59.2308 72.0103 59.2139 72.0187L59.1647 72.0484L59.1647 72.0485L59.1486 72.0581L59.1252 72.0719C56.6405 73.5346 53.4153 73.1966 50.5214 71.8103C47.6104 70.4158 45.0034 67.9472 43.777 65.1155C42.56 62.3057 41.4631 58.0194 40.5864 54.045C40.0128 51.4443 39.5306 48.9623 39.1715 47.1142L39.1715 47.1142L39.1714 47.1138L39.1713 47.1134L39.1713 47.1132L39.1712 47.113C38.9824 46.1408 38.8276 45.3442 38.7115 44.7979C38.1736 42.2673 36.5478 39.3087 35.8006 38.1453L36.0228 38.0023C36.7763 39.1754 38.4229 42.1669 38.971 44.7455C39.0894 45.3026 39.2453 46.1053 39.435 47.0819L39.435 47.082L39.4351 47.0822C39.7932 48.9257 40.2717 51.3891 40.8455 53.9905C41.7223 57.9655 42.8146 62.2284 44.02 65.0115C45.2159 67.7727 47.7696 70.1976 50.6326 71.5691C53.0112 72.7085 55.5819 73.1116 57.7517 72.3984C57.3251 72.3898 56.8699 72.3014 56.3985 72.1467C55.3571 71.805 54.2169 71.134 53.0866 70.2449C50.8257 68.4665 48.5797 65.7963 47.2153 63.067C44.9689 58.5734 42.1884 50.5392 40.6958 46.2262L40.6958 46.2261L40.6957 46.2257C40.3845 45.3266 40.1294 44.5893 39.9467 44.0795C39.1019 41.7222 37.427 38.7836 36.6943 37.6085L36.9185 37.4685C37.6544 38.6489 39.3415 41.607 40.1962 43.9918C40.3805 44.5061 40.6372 45.2479 40.9498 46.1511L40.9498 46.1512L40.9499 46.1513L40.9499 46.1515L40.95 46.1518C42.4444 50.4694 45.215 58.4747 47.452 62.9494C48.7975 65.6409 51.0171 68.2801 53.248 70.0349C54.3636 70.9124 55.4759 71.5639 56.4774 71.8925C57.2214 72.1366 57.8934 72.1995 58.4593 72.055L58.4279 72.0465C58.1151 71.9592 57.7626 71.7775 57.3839 71.5234C56.6257 71.0146 55.7367 70.1977 54.8104 69.1913C52.9565 67.1774 50.9338 64.384 49.4838 61.7173C47.0911 57.3168 43.6323 49.6963 41.7735 45.6011L41.7735 45.601L41.7735 45.601L41.7732 45.6004C41.3855 44.7461 41.0674 44.0452 40.8431 43.5591C39.8055 41.3098 38.0999 38.3835 37.3764 37.2012L37.6018 37.0631C38.327 38.2483 40.0392 41.1853 41.0835 43.4492C41.3089 43.9379 41.6282 44.6413 42.0171 45.4981C43.877 49.5957 47.329 57.2011 49.7162 61.5914C51.1554 64.2383 53.165 67.0135 55.0038 69.0109C55.9237 70.0103 56.796 70.8097 57.5288 71.3014C57.8956 71.5476 58.221 71.7122 58.4954 71.7889C58.7402 71.8573 58.9311 71.8522 59.0749 71.7874C59.1313 71.7506 59.1858 71.7107 59.2383 71.6679C59.3285 71.569 59.3976 71.4219 59.4405 71.2192C59.4997 70.9397 59.5049 70.5723 59.4574 70.1292C59.3625 69.244 59.0611 68.0876 58.6068 66.795C57.6988 64.2115 56.1896 61.1107 54.5437 58.5989C51.8137 54.4327 46.7656 47.814 44.0457 44.248L44.0457 44.2479C43.477 43.5023 43.0101 42.8901 42.6875 42.4618C41.1925 40.4769 39.4201 37.5889 38.7209 36.3936L38.949 36.2602C39.6466 37.4528 41.4128 40.3299 42.8981 42.302C43.2191 42.7283 43.6844 43.3383 44.2516 44.0819L44.2517 44.0821C46.97 47.646 52.0283 54.2779 54.7646 58.4537C56.4227 60.9842 57.9417 64.1049 58.8569 66.7089C59.3142 68.0102 59.6232 69.1891 59.7213 70.1042C59.7613 70.478 59.7668 70.8129 59.7306 71.0967C59.9733 70.7036 60.1416 70.2067 60.2385 69.6239C60.412 68.5807 60.3522 67.2842 60.096 65.8779C59.5837 63.0654 58.2915 59.845 56.5628 57.3941C53.6888 53.3196 47.9724 47.1085 44.8893 43.7586L44.8892 43.7586L44.8892 43.7585L44.8892 43.7585L44.8892 43.7585C44.244 43.0575 43.7141 42.4818 43.3498 42.0772C41.6605 40.2012 39.8578 37.3253 39.1678 36.1228L39.3971 35.9914C40.0841 37.1886 41.8753 40.0446 43.5452 41.899C43.9064 42.3001 44.433 42.8723 45.0752 43.57C48.1551 46.9162 53.8923 53.1496 56.7784 57.2413C58.5313 59.7264 59.8381 62.9843 60.3571 65.8332C60.6166 67.2576 60.6806 68.5876 60.5003 69.6718C60.4165 70.1757 60.279 70.6313 60.0808 71.0192C61.7443 69.4523 62.5928 66.9658 62.6923 64.294C62.8109 61.1094 61.8623 57.6976 60.0026 55.3447C58.1283 52.9733 54.9054 50.0012 51.834 47.354C49.8239 45.6216 47.8903 44.0379 46.4432 42.8527L46.4431 42.8526C45.6764 42.2247 45.0462 41.7085 44.6137 41.3414C42.6116 39.6424 40.7608 36.7861 40.0853 35.5717L40.3164 35.4435Z" fill="#498500"/>
<path d="M44.7829 41.1379L44.6943 41.2423L44.6943 41.2423L44.7829 41.1379ZM40.3164 35.4435L40.4361 35.3769L40.3696 35.2573L40.2499 35.3237L40.3164 35.4435ZM46.5964 42.6358L46.6843 42.5308L46.6832 42.5299L46.5964 42.6358ZM46.5965 42.6359L46.6858 42.532L46.6844 42.5308L46.5965 42.6359ZM46.5965 42.6359L46.5072 42.7398L46.5097 42.7419L46.5965 42.6359ZM52.0049 47.1518L52.0943 47.0481L52.0049 47.1518ZM60.2093 55.1799L60.1018 55.2648L60.2093 55.1799ZM62.9575 64.3078L62.8206 64.3028L62.9575 64.3078ZM59.335 71.9428L59.2606 71.8272L59.2514 71.8343L59.335 71.9428ZM59.2139 72.0187L59.1524 71.8958L59.1431 71.9015L59.2139 72.0187ZM59.1647 72.0484L59.0938 71.9312L59.0402 71.9636L59.0297 72.0253L59.1647 72.0484ZM59.1647 72.0485L59.235 72.1661L59.2891 72.1337L59.2997 72.0716L59.1647 72.0485ZM59.1486 72.0581L59.2183 72.176L59.2189 72.1757L59.1486 72.0581ZM59.1252 72.0719L59.1947 72.19L59.1949 72.1899L59.1252 72.0719ZM50.5214 71.8103L50.4622 71.9339L50.5214 71.8103ZM43.777 65.1155L43.9027 65.0611L43.777 65.1155ZM40.5864 54.045L40.4527 54.0745L40.5864 54.045ZM39.1715 47.1142L39.0367 47.1388L39.037 47.1404L39.1715 47.1142ZM39.1715 47.1142L39.3063 47.0896L39.306 47.0881L39.1715 47.1142ZM39.1714 47.1138L39.3059 47.0878L39.3059 47.0876L39.1714 47.1138ZM39.1713 47.1134L39.0368 47.1394L39.0369 47.1396L39.1713 47.1134ZM39.1713 47.1132L39.3058 47.0872L39.3057 47.0868L39.1713 47.1132ZM39.1712 47.113L39.0368 47.1391L39.0368 47.1394L39.1712 47.113ZM38.7115 44.7979L38.5775 44.8264L38.7115 44.7979ZM35.8006 38.1453L35.7265 38.0301L35.6114 38.1042L35.6854 38.2194L35.8006 38.1453ZM36.0228 38.0023L36.1381 37.9282L36.064 37.8129L35.9487 37.8871L36.0228 38.0023ZM38.971 44.7455L39.105 44.717L38.971 44.7455ZM39.435 47.0819L39.5698 47.0574L39.5695 47.0558L39.435 47.0819ZM39.435 47.082L39.3003 47.1066L39.3006 47.1083L39.435 47.082ZM39.4351 47.0822L39.5695 47.056L39.5695 47.0559L39.4351 47.0822ZM40.8455 53.9905L40.9793 53.961L40.8455 53.9905ZM44.02 65.0115L43.8943 65.0659L44.02 65.0115ZM50.6326 71.5691L50.6918 71.4455L50.6326 71.5691ZM57.7517 72.3984L57.7945 72.5285L57.7545 72.2614L57.7517 72.3984ZM56.3985 72.1467L56.3557 72.2769L56.3557 72.2769L56.3985 72.1467ZM53.0866 70.2449L53.1713 70.1372L53.0866 70.2449ZM47.2153 63.067L47.0927 63.1283L47.2153 63.067ZM40.6958 46.2262L40.5663 46.2708L40.5664 46.271L40.6958 46.2262ZM40.6958 46.2261L40.8253 46.1815L40.8253 46.1813L40.6958 46.2261ZM40.6957 46.2257L40.5662 46.2705L40.5662 46.2705L40.6957 46.2257ZM39.9467 44.0795L39.8177 44.1257L39.9467 44.0795ZM36.6943 37.6085L36.6218 37.4923L36.5056 37.5648L36.5781 37.681L36.6943 37.6085ZM36.9185 37.4685L37.0347 37.396L36.9622 37.2797L36.8459 37.3523L36.9185 37.4685ZM40.1962 43.9918L40.3251 43.9456L40.1962 43.9918ZM40.9498 46.1511L41.0795 46.107L41.0793 46.1063L40.9498 46.1511ZM40.9498 46.1512L40.8201 46.1954L40.8208 46.1972L40.9498 46.1512ZM40.9499 46.1513L41.0794 46.1067L41.0789 46.1054L40.9499 46.1513ZM40.9499 46.1515L40.8204 46.196L40.8204 46.1961L40.9499 46.1515ZM40.95 46.1518L40.8205 46.1964L40.8206 46.1966L40.95 46.1518ZM47.452 62.9494L47.5745 62.8882L47.452 62.9494ZM53.248 70.0349L53.3327 69.9272L53.248 70.0349ZM56.4774 71.8925L56.5201 71.7623L56.4774 71.8925ZM58.4593 72.055L58.4932 72.1878L58.9986 72.0588L58.4951 71.9228L58.4593 72.055ZM58.4279 72.0465L58.391 72.1785L58.3922 72.1788L58.4279 72.0465ZM57.3839 71.5234L57.4602 71.4096L57.3839 71.5234ZM54.8104 69.1913L54.9111 69.0985L54.8104 69.1913ZM49.4838 61.7173L49.3635 61.7828L49.4838 61.7173ZM41.7735 45.6011L41.6487 45.6576L41.6488 45.6577L41.7735 45.6011ZM41.7735 45.601L41.6458 45.6511L41.6487 45.6575L41.7735 45.601ZM41.7735 45.601L41.9012 45.5509L41.8982 45.5442L41.7735 45.601ZM41.7732 45.6004L41.6485 45.657L41.6485 45.6571L41.7732 45.6004ZM40.8431 43.5591L40.7187 43.6165L40.8431 43.5591ZM37.3764 37.2012L37.3049 37.0843L37.1881 37.1559L37.2596 37.2727L37.3764 37.2012ZM37.6018 37.0631L37.7187 36.9916L37.6472 36.8748L37.5303 36.9463L37.6018 37.0631ZM41.0835 43.4492L41.2079 43.3919L41.0835 43.4492ZM42.0171 45.4981L41.8924 45.5547L42.0171 45.4981ZM49.7162 61.5914L49.5958 61.6568L49.7162 61.5914ZM55.0038 69.0109L54.903 69.1037L55.0038 69.0109ZM57.5288 71.3014L57.4525 71.4152L57.5288 71.3014ZM58.4954 71.7889L58.5323 71.6569L58.5323 71.6569L58.4954 71.7889ZM59.0749 71.7874L59.1312 71.9123L59.1409 71.9079L59.1499 71.9021L59.0749 71.7874ZM59.2383 71.6679L59.3248 71.7742L59.3327 71.7677L59.3396 71.7602L59.2383 71.6679ZM59.4405 71.2192L59.3065 71.1909L59.4405 71.2192ZM59.4574 70.1292L59.3212 70.1438L59.4574 70.1292ZM58.6068 66.795L58.4776 66.8404L58.6068 66.795ZM54.5437 58.5989L54.6583 58.5238L54.5437 58.5989ZM44.0457 44.248L44.1547 44.1649L44.1545 44.1646L44.0457 44.248ZM44.0457 44.2479L43.9368 44.331L43.937 44.3313L44.0457 44.2479ZM42.6875 42.4618L42.7969 42.3793L42.7969 42.3793L42.6875 42.4618ZM38.7209 36.3936L38.6517 36.2753L38.5334 36.3445L38.6026 36.4628L38.7209 36.3936ZM38.949 36.2602L39.0673 36.1911L38.9981 36.0729L38.8799 36.142L38.949 36.2602ZM42.8981 42.302L43.0075 42.2196L42.8981 42.302ZM44.2516 44.0819L44.3606 43.999L44.3605 43.9988L44.2516 44.0819ZM44.2517 44.0821L44.1426 44.165L44.1428 44.1652L44.2517 44.0821ZM54.7646 58.4537L54.8791 58.3786L54.7646 58.4537ZM58.8569 66.7089L58.7276 66.7544L58.8569 66.7089ZM59.7213 70.1042L59.8575 70.0896L59.8575 70.0896L59.7213 70.1042ZM59.7306 71.0967L59.5947 71.0794L59.8472 71.1687L59.7306 71.0967ZM60.2385 69.6239L60.3736 69.6464L60.2385 69.6239ZM60.096 65.8779L59.9613 65.9024L60.096 65.8779ZM56.5628 57.3941L56.6747 57.3152L56.5628 57.3941ZM44.8893 43.7586L44.7878 43.8506L44.7885 43.8514L44.8893 43.7586ZM44.8892 43.7586L44.7875 43.8503L44.7878 43.8506L44.8892 43.7586ZM44.8892 43.7585L44.9911 43.6667L44.9862 43.6618L44.8892 43.7585ZM44.8892 43.7585L44.7876 43.8506L44.7922 43.8553L44.8892 43.7585ZM44.8892 43.7585L44.9907 43.6665L44.99 43.6657L44.8892 43.7585ZM43.3498 42.0772L43.248 42.1688L43.3498 42.0772ZM39.1678 36.1228L39.0997 36.0039L38.9807 36.0721L39.049 36.191L39.1678 36.1228ZM39.3971 35.9914L39.5159 35.9232L39.4478 35.8044L39.329 35.8725L39.3971 35.9914ZM43.5452 41.899L43.647 41.8073L43.5452 41.899ZM45.0752 43.57L44.9744 43.6628L45.0752 43.57ZM56.7784 57.2413L56.6665 57.3202L56.7784 57.2413ZM60.3571 65.8332L60.2223 65.8578L60.3571 65.8332ZM60.5003 69.6718L60.6354 69.6943L60.5003 69.6718ZM60.0808 71.0192L59.9588 70.9569L60.1747 71.1189L60.0808 71.0192ZM62.6923 64.294L62.5554 64.2889L62.6923 64.294ZM60.0026 55.3447L59.8951 55.4296L60.0026 55.3447ZM51.834 47.354L51.7446 47.4578L51.834 47.354ZM46.4432 42.8527L46.53 42.7467L46.5296 42.7464L46.4432 42.8527ZM46.4431 42.8526L46.3563 42.9586L46.3567 42.9589L46.4431 42.8526ZM44.6137 41.3414L44.525 41.4459L44.6137 41.3414ZM40.0853 35.5717L40.0188 35.4519L39.8989 35.5184L39.9656 35.6383L40.0853 35.5717ZM44.8716 41.0334C42.9254 39.3818 41.1032 36.5761 40.4361 35.3769L40.1967 35.5101C40.8693 36.7194 42.7106 39.5589 44.6943 41.2423L44.8716 41.0334ZM46.6832 42.5299C45.9193 41.9041 45.2947 41.3925 44.8716 41.0334L44.6943 41.2423C45.1197 41.6034 45.7465 42.1168 46.5096 42.7418L46.6832 42.5299ZM46.6844 42.5308L46.6843 42.5308L46.5085 42.7409L46.5085 42.7409L46.6844 42.5308ZM46.6858 42.532L46.6857 42.532L46.5072 42.7398L46.5072 42.7398L46.6858 42.532ZM52.0943 47.0481C50.0833 45.3148 48.1339 43.7181 46.6833 42.5299L46.5097 42.7419C47.9604 43.9302 49.9074 45.5249 51.9154 47.2556L52.0943 47.0481ZM60.3168 55.0949C58.4155 52.6894 55.165 49.6947 52.0943 47.0481L51.9154 47.2556C54.9866 49.9025 58.2186 52.8821 60.1018 55.2648L60.3168 55.0949ZM63.0944 64.3129C63.2159 61.0495 62.2473 57.5374 60.3168 55.0949L60.1018 55.2648C61.9851 57.6475 62.9401 61.0925 62.8206 64.3028L63.0944 64.3129ZM59.409 72.0581C61.8154 70.5118 62.976 67.4956 63.0944 64.3129L62.8206 64.3028C62.7039 67.4385 61.5619 70.349 59.2609 71.8276L59.409 72.0581ZM59.334 72.109C59.3635 72.0913 59.3917 72.0721 59.4185 72.0514L59.2514 71.8343C59.2329 71.8486 59.2135 71.8618 59.1933 71.8739L59.334 72.109ZM59.2753 72.1412C59.2952 72.1312 59.3147 72.1205 59.334 72.109L59.1933 71.8739C59.1799 71.8818 59.1664 71.8893 59.1525 71.8962L59.2753 72.1412ZM59.2356 72.1657L59.2848 72.1359L59.1431 71.9015L59.0938 71.9312L59.2356 72.1657ZM59.2997 72.0716L59.2997 72.0716L59.0297 72.0253L59.0297 72.0254L59.2997 72.0716ZM59.2189 72.1757L59.235 72.1661L59.0944 71.9309L59.0784 71.9405L59.2189 72.1757ZM59.1949 72.1899L59.2183 72.176L59.0789 71.9401L59.0555 71.954L59.1949 72.1899ZM50.4622 71.9339C53.3784 73.3308 56.6556 73.6848 59.1947 72.19L59.0557 71.9539C56.6255 73.3845 53.4523 73.0624 50.5806 71.6868L50.4622 71.9339ZM43.6513 65.17C44.893 68.037 47.5268 70.5277 50.4622 71.9339L50.5806 71.6868C47.694 70.304 45.1138 67.8574 43.9027 65.0611L43.6513 65.17ZM40.4527 54.0745C41.3292 58.0486 42.4285 62.3467 43.6513 65.17L43.9027 65.0611C42.6915 62.2647 41.5969 57.9901 40.7202 54.0155L40.4527 54.0745ZM39.037 47.1404C39.3961 48.9884 39.8786 51.4719 40.4527 54.0745L40.7202 54.0155C40.147 51.4167 39.6651 48.9363 39.306 47.0881L39.037 47.1404ZM39.0367 47.1387L39.0367 47.1388L39.3063 47.0897L39.3062 47.0896L39.0367 47.1387ZM39.0369 47.1399L39.037 47.1402L39.306 47.0881L39.3059 47.0878L39.0369 47.1399ZM39.0369 47.1396L39.0369 47.14L39.3059 47.0876L39.3058 47.0872L39.0369 47.1396ZM39.0368 47.1393L39.0368 47.1394L39.3058 47.0873L39.3058 47.0872L39.0368 47.1393ZM39.0368 47.1394L39.0369 47.1396L39.3057 47.0868L39.3057 47.0866L39.0368 47.1394ZM38.5775 44.8264C38.6932 45.3712 38.8478 46.1664 39.0368 47.1391L39.3057 47.0869C39.1169 46.1153 38.9619 45.3171 38.8455 44.7695L38.5775 44.8264ZM35.6854 38.2194C36.4294 39.3778 38.0448 42.3199 38.5775 44.8264L38.8455 44.7695C38.3025 42.2147 36.6662 39.2395 35.9159 38.0713L35.6854 38.2194ZM35.9487 37.8871L35.7265 38.0301L35.8748 38.2605L36.097 38.1175L35.9487 37.8871ZM39.105 44.717C38.5518 42.1143 36.8947 39.1062 36.1381 37.9282L35.9076 38.0763C36.6578 39.2445 38.2941 42.2195 38.837 44.774L39.105 44.717ZM39.5695 47.0558C39.3799 46.0797 39.2237 45.2756 39.105 44.717L38.837 44.774C38.9551 45.3296 39.1107 46.1309 39.3005 47.1081L39.5695 47.0558ZM39.5698 47.0574L39.5698 47.0574L39.3003 47.1065L39.3003 47.1066L39.5698 47.0574ZM39.5695 47.0559L39.5695 47.0557L39.3006 47.1083L39.3006 47.1085L39.5695 47.0559ZM40.9793 53.961C40.4059 51.3615 39.9277 48.8997 39.5695 47.056L39.3006 47.1083C39.6587 48.9518 40.1375 51.4167 40.7117 54.02L40.9793 53.961ZM44.1457 64.957C42.9461 62.1874 41.8561 57.9362 40.9793 53.961L40.7117 54.02C41.5884 57.9947 42.6831 62.2694 43.8943 65.0659L44.1457 64.957ZM50.6918 71.4455C47.8532 70.0857 45.3263 67.6829 44.1457 64.957L43.8943 65.0659C45.1055 67.8624 47.6859 70.3094 50.5734 71.6926L50.6918 71.4455ZM57.709 72.2683C55.5834 72.9669 53.0504 72.5754 50.6918 71.4455L50.5734 71.6926C52.9721 72.8417 55.5805 73.2563 57.7945 72.5285L57.709 72.2683ZM56.3557 72.2769C56.8369 72.4347 57.3057 72.5264 57.749 72.5354L57.7545 72.2614C57.3444 72.2532 56.9029 72.168 56.4412 72.0165L56.3557 72.2769ZM53.0019 70.3525C54.1397 71.2475 55.294 71.9285 56.3557 72.2769L56.4412 72.0165C55.4202 71.6815 54.2942 71.0204 53.1713 70.1372L53.0019 70.3525ZM47.0927 63.1283C48.4666 65.8766 50.726 68.5624 53.0019 70.3525L53.1713 70.1372C50.9255 68.3707 48.6927 65.7161 47.3378 63.0058L47.0927 63.1283ZM40.5664 46.271C42.0577 50.5804 44.8414 58.6248 47.0927 63.1283L47.3378 63.0058C45.0964 58.5221 42.3191 50.4979 40.8253 46.1814L40.5664 46.271ZM40.5663 46.2707L40.5663 46.2708L40.8254 46.1816L40.8253 46.1815L40.5663 46.2707ZM40.5662 46.2705L40.5664 46.2709L40.8253 46.1813L40.8251 46.1808L40.5662 46.2705ZM39.8177 44.1257C40.0001 44.6346 40.2549 45.3711 40.5662 46.2705L40.8251 46.1809C40.5141 45.2821 40.2586 44.544 40.0756 44.0333L39.8177 44.1257ZM36.5781 37.681C37.3091 38.8535 38.9779 41.7822 39.8177 44.1257L40.0756 44.0333C39.2259 41.6621 37.5448 38.7138 36.8105 37.536L36.5781 37.681ZM36.8459 37.3523L36.6218 37.4923L36.7668 37.7247L36.991 37.5847L36.8459 37.3523ZM40.3251 43.9456C39.4655 41.5469 37.7723 38.5791 37.0347 37.396L36.8022 37.541C37.5365 38.7188 39.2175 41.667 40.0672 44.0381L40.3251 43.9456ZM41.0793 46.1063C40.7668 45.2034 40.5097 44.4608 40.3251 43.9456L40.0672 44.0381C40.2512 44.5514 40.5076 45.2924 40.8203 46.1959L41.0793 46.1063ZM41.0795 46.1071L41.0795 46.107L40.8201 46.1952L40.8202 46.1954L41.0795 46.1071ZM41.0789 46.1054L41.0789 46.1053L40.8208 46.1972L40.8208 46.1972L41.0789 46.1054ZM41.0795 46.107L41.0794 46.1067L40.8203 46.1958L40.8204 46.196L41.0795 46.107ZM41.0796 46.1072L41.0795 46.1069L40.8204 46.1961L40.8205 46.1964L41.0796 46.1072ZM47.5745 62.8882C45.3425 58.4233 42.5751 50.4282 41.0795 46.107L40.8206 46.1966C42.3137 50.5106 45.0875 58.526 47.3294 63.0107L47.5745 62.8882ZM53.3327 69.9272C51.1168 68.1843 48.9105 65.5607 47.5745 62.8882L47.3294 63.0107C48.6844 65.7211 50.9173 68.3759 53.1633 70.1426L53.3327 69.9272ZM56.5201 71.7623C55.5389 71.4404 54.4408 70.7988 53.3327 69.9272L53.1633 70.1426C54.2863 71.0259 55.4128 71.6873 56.4347 72.0227L56.5201 71.7623ZM58.4255 71.9223C57.8934 72.0581 57.2494 72.0017 56.5201 71.7623L56.4347 72.0227C57.1934 72.2716 57.8934 72.3408 58.4932 72.1878L58.4255 71.9223ZM58.3922 72.1788L58.4236 72.1873L58.4951 71.9228L58.4636 71.9143L58.3922 72.1788ZM57.3076 71.6372C57.6923 71.8953 58.0585 72.0856 58.391 72.1785L58.4647 71.9146C58.1716 71.8327 57.8329 71.6598 57.4602 71.4096L57.3076 71.6372ZM54.7096 69.2841C55.6391 70.2939 56.5365 71.1197 57.3076 71.6372L57.4602 71.4096C56.7149 70.9095 55.8343 70.1014 54.9111 69.0985L54.7096 69.2841ZM49.3635 61.7828C50.8189 64.4594 52.8482 67.262 54.7096 69.2841L54.9111 69.0985C53.0649 67.0929 51.0488 64.3086 49.6042 61.6519L49.3635 61.7828ZM41.6488 45.6577C43.5067 49.751 46.9678 57.3769 49.3635 61.7828L49.6042 61.6519C47.2144 57.2568 43.7578 49.6415 41.8983 45.5445L41.6488 45.6577ZM41.6487 45.6575L41.6487 45.6576L41.8983 45.5446L41.8983 45.5445L41.6487 45.6575ZM41.646 45.651L41.646 45.6511L41.901 45.5509L41.901 45.5509L41.646 45.651ZM41.6485 45.6571L41.6488 45.6577L41.8982 45.5442L41.8979 45.5437L41.6485 45.6571ZM40.7187 43.6165C40.9427 44.1022 41.2606 44.8025 41.6485 45.657L41.898 45.5438C41.5103 44.6897 41.192 43.9883 40.9675 43.5017L40.7187 43.6165ZM37.2596 37.2727C37.9822 38.4536 39.6845 41.3745 40.7187 43.6165L40.9675 43.5017C39.9266 41.245 38.2176 38.3134 37.4933 37.1297L37.2596 37.2727ZM37.5303 36.9463L37.3049 37.0843L37.448 37.318L37.6734 37.18L37.5303 36.9463ZM41.2079 43.3919C40.1602 41.1205 38.4447 38.1782 37.7187 36.9916L37.485 37.1347C38.2093 38.3184 39.9182 41.25 40.9591 43.5066L41.2079 43.3919ZM42.1418 45.4415C41.753 44.5849 41.4335 43.881 41.2079 43.3919L40.9591 43.5066C41.1843 43.9948 41.5034 44.6978 41.8924 45.5547L42.1418 45.4415ZM49.8365 61.526C47.4522 57.141 44.0026 49.541 42.1418 45.4415L41.8924 45.5547C43.7514 49.6505 47.2057 57.2612 49.5958 61.6568L49.8365 61.526ZM55.1046 68.9182C53.2734 66.9289 51.2704 64.1629 49.8365 61.526L49.5958 61.6568C51.0405 64.3137 53.0567 67.098 54.903 69.1037L55.1046 68.9182ZM57.6052 71.1877C56.8852 70.7046 56.0213 69.914 55.1046 68.9182L54.903 69.1037C55.8261 70.1066 56.7068 70.9148 57.4525 71.4152L57.6052 71.1877ZM58.5323 71.6569C58.2776 71.5858 57.9659 71.4298 57.6052 71.1877L57.4525 71.4152C57.8253 71.6653 58.1645 71.8387 58.4585 71.9208L58.5323 71.6569ZM59.0187 71.6625C58.9148 71.7093 58.7598 71.7205 58.5323 71.6569L58.4585 71.9208C58.7206 71.994 58.9473 71.9952 59.1312 71.9123L59.0187 71.6625ZM59.1518 71.5617C59.103 71.6015 59.0523 71.6385 59 71.6728L59.1499 71.9021C59.2103 71.8626 59.2687 71.8199 59.3248 71.7742L59.1518 71.5617ZM59.3065 71.1909C59.2666 71.379 59.2054 71.5007 59.1371 71.5757L59.3396 71.7602C59.4515 71.6373 59.5285 71.4647 59.5745 71.2476L59.3065 71.1909ZM59.3212 70.1438C59.3679 70.5799 59.3615 70.9311 59.3065 71.1909L59.5745 71.2476C59.638 70.9482 59.6419 70.5647 59.5936 70.1146L59.3212 70.1438ZM58.4776 66.8404C58.9303 68.1286 59.2279 69.2737 59.3212 70.1438L59.5936 70.1146C59.4971 69.2143 59.1919 68.0465 58.7361 66.7496L58.4776 66.8404ZM54.4291 58.6739C56.0689 61.1764 57.5732 64.2672 58.4776 66.8404L58.7361 66.7496C57.8244 64.1557 56.3103 61.0449 54.6583 58.5238L54.4291 58.6739ZM43.9368 44.331C46.6579 47.8987 51.7025 54.5128 54.4291 58.6739L54.6583 58.5238C51.925 54.3525 46.8733 47.7293 44.1547 44.1649L43.9368 44.331ZM43.937 44.3313L43.937 44.3313L44.1545 44.1646L44.1544 44.1646L43.937 44.3313ZM42.578 42.5442C42.901 42.973 43.3682 43.5855 43.9368 44.331L44.1546 44.1648C43.5858 43.4191 43.1192 42.8073 42.7969 42.3793L42.578 42.5442ZM38.6026 36.4628C39.3027 37.6595 41.0783 40.5529 42.578 42.5442L42.7969 42.3793C41.3068 40.4009 39.5375 37.5184 38.8391 36.3244L38.6026 36.4628ZM38.8799 36.142L38.6517 36.2753L38.79 36.5119L39.0182 36.3785L38.8799 36.142ZM43.0075 42.2196C41.527 40.2539 39.764 37.3822 39.0673 36.1911L38.8308 36.3294C39.5292 37.5234 41.2985 40.4059 42.7886 42.3844L43.0075 42.2196ZM44.3605 43.9988C43.7932 43.2551 43.3282 42.6454 43.0075 42.2196L42.7886 42.3844C43.11 42.8111 43.5756 43.4215 44.1426 44.165L44.3605 43.9988ZM44.3608 43.9992L44.3606 43.999L44.1425 44.1648L44.1426 44.165L44.3608 43.9992ZM54.8791 58.3786C52.1395 54.1977 47.0776 47.5613 44.3606 43.999L44.1428 44.1652C46.8623 47.7306 51.917 54.358 54.65 58.5288L54.8791 58.3786ZM58.9861 66.6635C58.0673 64.0491 56.5434 60.9185 54.8791 58.3786L54.65 58.5288C56.302 61.0499 57.8161 64.1606 58.7276 66.7544L58.9861 66.6635ZM59.8575 70.0896C59.7578 69.1594 59.445 67.9692 58.9861 66.6635L58.7276 66.7544C59.1834 68.0513 59.4886 69.2188 59.5851 70.1188L59.8575 70.0896ZM59.8665 71.1141C59.9045 70.8161 59.8982 70.4698 59.8575 70.0896L59.5851 70.1188C59.6245 70.4862 59.6291 70.8097 59.5947 71.0794L59.8665 71.1141ZM60.1034 69.6015C60.0085 70.1722 59.8448 70.6509 59.614 71.0248L59.8472 71.1687C60.1017 70.7563 60.2747 70.2411 60.3736 69.6464L60.1034 69.6015ZM59.9613 65.9024C60.2158 67.2997 60.2734 68.5792 60.1034 69.6015L60.3736 69.6464C60.5506 68.5823 60.4887 67.2687 60.2308 65.8533L59.9613 65.9024ZM56.4509 57.4731C58.1675 59.9068 59.4523 63.1084 59.9613 65.9024L60.2308 65.8533C59.7151 63.0225 58.4156 59.7832 56.6747 57.3152L56.4509 57.4731ZM44.7885 43.8514C47.8741 47.2041 53.5832 53.4076 56.4509 57.4731L56.6747 57.3152C53.7944 53.2316 48.0706 47.013 44.9901 43.6658L44.7885 43.8514ZM44.7878 43.8506L44.7878 43.8506L44.9907 43.6666L44.9907 43.6665L44.7878 43.8506ZM44.7875 43.8503L44.7875 43.8503L44.991 43.6668L44.991 43.6668L44.7875 43.8503ZM44.7922 43.8553L44.7922 43.8553L44.9862 43.6618L44.9862 43.6618L44.7922 43.8553ZM44.7877 43.8505L44.7877 43.8505L44.9907 43.6665L44.9907 43.6665L44.7877 43.8505ZM43.248 42.1688C43.613 42.5741 44.1434 43.1505 44.7884 43.8513L44.99 43.6657C44.3446 42.9645 43.8153 42.3894 43.4516 41.9855L43.248 42.1688ZM39.049 36.191C39.7405 37.3961 41.5489 40.282 43.248 42.1688L43.4516 41.9855C41.772 40.1204 39.9751 37.2544 39.2866 36.0546L39.049 36.191ZM39.329 35.8725L39.0997 36.0039L39.2359 36.2416L39.4652 36.1102L39.329 35.8725ZM43.647 41.8073C41.9869 39.9638 40.2014 37.1177 39.5159 35.9232L39.2783 36.0596C39.9668 37.2594 41.7638 40.1255 43.4434 41.9906L43.647 41.8073ZM45.176 43.4772C44.5336 42.7792 44.0075 42.2077 43.647 41.8073L43.4434 41.9906C43.8052 42.3924 44.3325 42.9653 44.9744 43.6628L45.176 43.4772ZM56.8904 57.1623C53.9979 53.0616 48.2533 46.8207 45.176 43.4772L44.9744 43.6628C48.0568 47.0117 53.7867 53.2376 56.6665 57.3202L56.8904 57.1623ZM60.4919 65.8087C59.9695 62.9413 58.6554 59.6647 56.8904 57.1623L56.6665 57.3202C58.4073 59.7882 59.7067 63.0272 60.2223 65.8578L60.4919 65.8087ZM60.6354 69.6943C60.8192 68.5891 60.753 67.2422 60.4919 65.8087L60.2223 65.8578C60.4801 67.2731 60.542 68.5861 60.3652 69.6493L60.6354 69.6943ZM60.2028 71.0816C60.4088 70.6782 60.5499 70.2084 60.6354 69.6943L60.3652 69.6493C60.2831 70.143 60.1491 70.5844 59.9588 70.9569L60.2028 71.0816ZM62.5554 64.2889C62.4568 66.939 61.6154 69.3856 59.9868 70.9195L60.1747 71.1189C61.8733 69.519 62.7289 66.9926 62.8292 64.2991L62.5554 64.2889ZM59.8951 55.4296C61.7312 57.7527 62.673 61.1309 62.5554 64.2889L62.8292 64.2991C62.9487 61.0879 61.9935 57.6426 60.1101 55.2597L59.8951 55.4296ZM51.7446 47.4578C54.8162 50.1051 58.0298 53.0696 59.8951 55.4296L60.1101 55.2597C58.2267 52.8769 54.9946 49.8972 51.9234 47.2503L51.7446 47.4578ZM46.3564 42.9587C47.8036 44.144 49.736 45.7267 51.7446 47.4578L51.9234 47.2503C49.9119 45.5166 47.977 43.9319 46.53 42.7467L46.3564 42.9587ZM46.3567 42.9589L46.3567 42.959L46.5296 42.7464L46.5296 42.7464L46.3567 42.9589ZM44.525 41.4459C44.9587 41.814 45.59 42.331 46.3563 42.9586L46.5299 42.7467C45.7628 42.1183 45.1337 41.6031 44.7023 41.237L44.525 41.4459ZM39.9656 35.6383C40.6439 36.8577 42.5042 39.731 44.525 41.4459L44.7023 41.237C42.7189 39.5538 40.8777 36.7144 40.205 35.5051L39.9656 35.6383ZM40.2499 35.3237L40.0188 35.4519L40.1517 35.6915L40.3828 35.5633L40.2499 35.3237Z" fill="#498500"/>
<path fill-rule="evenodd" clip-rule="evenodd" d="M1.49419 54.557L25.1939 60.9957C25.8789 61.2697 27.3858 61.4341 27.9338 59.8997C28.2523 59.0077 29.1339 55.6265 30.0824 51.9889C31.1733 47.8052 32.3526 43.2823 32.8655 41.8167C33.6327 39.6248 34.0984 38.4376 34.2354 38.1179L35.4684 40.0358C34.0984 44.0086 31.1668 52.8583 30.3996 56.4749C30.2974 56.9569 30.2014 57.4497 30.1038 57.9506C29.2861 62.1485 28.3579 66.9135 22.728 70.5852C17.6867 73.873 11.038 71.9551 8.34382 70.5852C6.47158 69.3979 2.48052 66.332 1.49418 62.6058C0.625224 57.7542 1.10872 55.9866 1.39292 54.9477C1.4317 54.8059 1.46677 54.6777 1.49419 54.557ZM2.17915 58.2558C2.17915 57.5072 2.24235 56.7734 2.36372 56.0593L6.8794 57.3083C6.67224 58.2302 6.56292 59.1892 6.56292 60.1737C6.56292 64.6487 8.82156 68.5962 12.261 70.9384C6.48564 69.6084 2.17915 64.435 2.17915 58.2558Z" fill="#498500"/>
<path d="M29.5352 85.7324C29.5352 83.2129 28.3457 81.9531 25.9668 81.9531C24.9355 81.9531 24.0449 82.2695 23.2949 82.9023C22.5449 83.5352 21.9648 84.3496 21.5547 85.3457C21.1445 86.3418 20.7402 87.543 20.3418 88.9492C19.9551 90.3555 19.6094 91.75 19.3047 93.1328C18.543 96.543 17.4648 99.3848 16.0703 101.658C16.4922 101.846 17.1367 102.15 18.0039 102.572C18.8711 102.982 19.5684 103.305 20.0957 103.539C21.5723 104.207 22.8672 104.541 23.9805 104.541C24.4727 104.541 24.9355 104.418 25.3691 104.172C25.8027 103.926 26.1309 103.662 26.3535 103.381C26.5879 103.088 26.7871 102.818 26.9512 102.572C27.127 102.326 27.2324 102.203 27.2676 102.203L28.0586 102.66C27.0273 104.605 25.9375 105.812 24.7891 106.281C24.2734 106.492 23.6113 106.598 22.8027 106.598C21.9941 106.598 21.1035 106.451 20.1309 106.158C19.1699 105.877 18.0859 105.467 16.8789 104.928C15.6836 104.389 14.8398 104.031 14.3477 103.855C13.4102 104.664 12.209 105.326 10.7441 105.842C9.29102 106.346 7.62109 106.598 5.73438 106.598C4.78516 106.598 3.92383 106.422 3.15039 106.07C1.68555 105.391 0.953125 104.529 0.953125 103.486C0.953125 102.443 1.27539 101.564 1.91992 100.85C3.15039 99.4902 4.85547 98.8105 7.03516 98.8105C8.59375 98.8105 10.2402 99.1328 11.9746 99.7773C12.6074 100.023 13.4336 100.363 14.4531 100.797C14.957 99.4023 15.3848 97.7969 15.7363 95.9805C16.0879 94.1641 16.416 92.6641 16.7207 91.4805C17.0254 90.2852 17.3359 89.1895 17.6523 88.1934C17.9805 87.1855 18.4023 86.207 18.918 85.2578C19.4453 84.3086 20.0254 83.5 20.6582 82.832C22.0527 81.3789 23.8691 80.6523 26.1074 80.6523C27.8066 80.6523 29.1895 81.1445 30.2559 82.1289C31.334 83.1133 31.873 84.4961 31.873 86.2773C31.873 87.6016 31.6035 88.8906 31.0645 90.1445C30.5371 91.3867 29.834 92.4824 28.9551 93.4316C28.0762 94.3809 27.0566 95.1836 25.8965 95.8398C24.748 96.4961 23.5586 96.9297 22.3281 97.1406L22.082 96.1738C23.5117 95.8223 24.8008 95.1074 25.9492 94.0293C27.0977 92.9395 27.9824 91.668 28.6035 90.2148C29.2246 88.75 29.5352 87.2559 29.5352 85.7324ZM2.06055 103.275C2.06055 104.201 2.63477 104.822 3.7832 105.139C6.16211 105.795 8.5293 105.59 10.8848 104.523C11.7637 104.113 12.4375 103.604 12.9062 102.994C10.5625 101.412 8.43555 100.621 6.52539 100.621C3.54883 100.621 2.06055 101.506 2.06055 103.275ZM39.168 95.7695H41.9102L40.5215 101.025C40.2988 101.764 40.1875 102.438 40.1875 103.047C40.1875 103.645 40.293 103.943 40.5039 103.943C40.7148 103.943 41.002 103.762 41.3652 103.398C41.7402 103.023 42.0566 102.648 42.3145 102.273L42.7188 101.711L43.4746 102.414C43.0879 103.164 42.5957 103.85 41.998 104.471C40.8379 105.678 39.8301 106.281 38.9746 106.281C37.9668 106.281 37.4629 105.502 37.4629 103.943C37.4629 103.686 37.4746 103.492 37.498 103.363C37.3223 103.961 36.9883 104.488 36.4961 104.945C35.5586 105.836 34.498 106.281 33.3145 106.281C32.1426 106.281 31.1992 105.883 30.4844 105.086C29.7812 104.277 29.4297 103.27 29.4297 102.062C29.4297 100.188 30.0391 98.6055 31.2578 97.3164C32.4766 96.0273 33.9062 95.3828 35.5469 95.3828C36.3672 95.3828 37.0469 95.6113 37.5859 96.0684C38.125 96.5137 38.4766 97.0996 38.6406 97.8262L39.168 95.7695ZM36.2324 96.8945C35.5527 96.8945 34.9141 97.1816 34.3164 97.7559C33.7305 98.3184 33.2793 99.0039 32.9629 99.8125C32.6465 100.609 32.4883 101.389 32.4883 102.15C32.4883 102.912 32.6523 103.527 32.9805 103.996C33.3203 104.465 33.8359 104.699 34.5273 104.699C35.2305 104.699 35.8633 104.383 36.4258 103.75C37.4922 102.531 38.0254 101.084 38.0254 99.4082C38.0254 97.7324 37.4277 96.8945 36.2324 96.8945ZM50.9629 82.6211H53.8105C53.3066 83.4883 52.5332 85.416 51.4902 88.4043C50.4473 91.3809 49.4922 94.3809 48.625 97.4043C47.7695 100.416 47.3418 102.262 47.3418 102.941C47.3418 103.609 47.4238 103.943 47.5879 103.943C48.0801 103.943 48.8477 103.199 49.8906 101.711L50.6289 102.414C50.1133 103.305 49.5566 104.055 48.959 104.664C47.9043 105.742 47.0488 106.281 46.3926 106.281C45.1973 106.281 44.5996 105.561 44.5996 104.119C44.5996 101.975 45.3086 98.5938 46.7266 93.9766C48.1562 89.3594 49.5684 85.5742 50.9629 82.6211ZM61.2812 95.7695H64.0234L62.6348 101.025C62.4121 101.764 62.3008 102.438 62.3008 103.047C62.3008 103.645 62.4062 103.943 62.6172 103.943C62.8281 103.943 63.1152 103.762 63.4785 103.398C63.8535 103.023 64.1699 102.648 64.4277 102.273L64.832 101.711L65.5879 102.414C65.2012 103.164 64.709 103.85 64.1113 104.471C62.9512 105.678 61.9434 106.281 61.0879 106.281C60.0801 106.281 59.5762 105.502 59.5762 103.943C59.5762 103.686 59.5879 103.492 59.6113 103.363C59.4355 103.961 59.1016 104.488 58.6094 104.945C57.6719 105.836 56.6113 106.281 55.4277 106.281C54.2559 106.281 53.3125 105.883 52.5977 105.086C51.8945 104.277 51.543 103.27 51.543 102.062C51.543 100.188 52.1523 98.6055 53.3711 97.3164C54.5898 96.0273 56.0195 95.3828 57.6602 95.3828C58.4805 95.3828 59.1602 95.6113 59.6992 96.0684C60.2383 96.5137 60.5898 97.0996 60.7539 97.8262L61.2812 95.7695ZM58.3457 96.8945C57.666 96.8945 57.0273 97.1816 56.4297 97.7559C55.8438 98.3184 55.3926 99.0039 55.0762 99.8125C54.7598 100.609 54.6016 101.389 54.6016 102.15C54.6016 102.912 54.7656 103.527 55.0938 103.996C55.4336 104.465 55.9492 104.699 56.6406 104.699C57.3438 104.699 57.9766 104.383 58.5391 103.75C59.6055 102.531 60.1387 101.084 60.1387 99.4082C60.1387 97.7324 59.541 96.8945 58.3457 96.8945Z" fill="#498500"/>
<path d="M9.28258 122H8.55016L5.26305 117.477L4.12047 118.484V122H3.52281V113.434H4.12047V117.887L5.06969 116.938L8.42711 113.434H9.18883L5.67906 117.055L9.28258 122ZM13.6155 122V113.434H14.2131V122H13.6155ZM21.9913 122H21.3878V113.996H18.6046V113.434H24.7745V113.996H21.9913V122ZM32.8281 113.85C31.7539 113.85 30.9082 114.193 30.291 114.881C29.6738 115.568 29.3652 116.51 29.3652 117.705C29.3652 118.928 29.6562 119.877 30.2383 120.553C30.8203 121.229 31.6523 121.566 32.7344 121.566C33.4531 121.566 34.1133 121.475 34.7148 121.291V121.818C34.1484 122.018 33.4414 122.117 32.5938 122.117C31.3906 122.117 30.4434 121.729 29.752 120.951C29.0605 120.174 28.7148 119.088 28.7148 117.693C28.7148 116.822 28.8789 116.055 29.207 115.391C29.5391 114.727 30.0137 114.215 30.6309 113.855C31.252 113.492 31.9727 113.311 32.793 113.311C33.6289 113.311 34.377 113.467 35.0371 113.779L34.7969 114.318C34.1719 114.006 33.5156 113.85 32.8281 113.85ZM45.9501 122H45.3466V117.787H40.3427V122H39.745V113.434H40.3427V117.236H45.3466V113.434H45.9501V122ZM56.1834 122H51.5017V113.434H56.1834V113.984H52.0994V117.225H55.9548V117.775H52.0994V121.449H56.1834V122ZM67.4713 122H66.8678L61.7936 114.395H61.7467C61.7936 115.301 61.817 115.984 61.817 116.445V122H61.2428V113.434H61.8405L66.9088 121.027H66.944C66.9088 120.324 66.8913 119.656 66.8913 119.023V113.434H67.4713V122Z" fill="#498500"/>
</svg>
