 <svg width="100%" height="100%" xmlns="http://www.w3.org/2000/svg" xmlns:xlink="http://www.w3.org/1999/xlink" style="position: absolute; width: 63px; height: 58px; overflow: visible; display: block; transform: translate(0px, 0px);">
                <path d="M 44.588 0 C 46.392 4.798 42.632 14.182 40.527 18.274 L 50.294 10.12 L 60.563 14.677 L 57.822 25.72 C 54.938 25.21 47.067 24.545 38.663 25.959 C 30.26 27.374 21.935 33.508 18.823 36.398 C 19.978 36.31 24.953 35.131 35.616 31.13 
                C 46.279 27.128 58.231 33.549 62.874 37.26 C 61.864 37.52 58.887 38.663 55.069 41.151 C 50.296 44.261 43.674 50.666 29.802 56.121 C 18.706 60.484 8.955 53.976 5.467 50.177 C 1.946 45.238 -3.465 33.121 3.058 24.174 C 11.21 12.989 22.8 10.315 27.461 8.174 
                C 32.122 6.032 40.247 3.625 44.588 0.001 Z" transform="translate(0.354 0.729)" fill="rgba(73, 133, 0, 0.1)" name="Path"></path>
            </svg>