<svg width="41" height="41" viewBox="0 0 41 41" fill="none" xmlns="http://www.w3.org/2000/svg">
<path d="M33.475 27.0643C33.3849 27.0414 33.2178 27.0095 32.9855 27.0095C32.4107 27.0095 31.4719 27.2092 30.2668 28.1605C28.7609 29.3495 27.1356 29.9528 25.4355 29.9528C22.4519 29.9528 20.4773 28.0412 20.2623 27.8234L20.1673 27.7277L20.082 27.6231C20.0709 27.6092 18.8547 26.2322 16.6872 26.2322C15.2686 26.2322 13.694 26.8104 12.0084 27.951C9.75425 29.4758 7.79825 30.2169 6.02948 30.2169C5.37565 30.2169 4.77864 30.1108 4.2323 29.9285V34.9533H36.7677V27.9961C36.74 27.9968 36.7116 27.9996 36.6838 27.9996C35.3332 28.0003 34.0831 27.4061 33.475 27.0643Z" fill="#F5FAEB"/>
<path d="M38.9304 34.9565H2.06977C1.25302 34.9565 0.784986 35.4329 1.02553 36.0208L4.59361 39.9356C4.83347 40.5235 5.69125 40.9998 6.50799 40.9998H34.4921C35.3089 40.9998 36.1659 40.5235 36.4065 39.9356L39.9746 36.0208C40.2145 35.4329 39.7472 34.9565 38.9304 34.9565Z" fill="#F5FAEB"/>
<path d="M38.0338 23.4251V18.7442C38.0338 13.2715 33.5977 9.49615 28.125 9.49615H22.0144V8.10944V7.13037H18.9844V8.10944V9.49615H12.8738C7.40106 9.49615 2.96497 13.2715 2.96497 18.7442V23.4251C2.96497 23.4251 2.96778 25.6494 4.23107 26.788C4.66507 27.1791 5.24545 27.4432 6.02824 27.4432C7.09184 27.4432 8.52368 26.9585 10.4533 25.6536C12.8781 24.0131 14.9685 23.4584 16.6867 23.4584C20.2721 23.4584 22.2336 25.8741 22.2336 25.8741C22.2336 25.8741 23.5233 27.1797 25.4342 27.1797C26.3529 27.1797 27.4151 26.8781 28.5467 25.9843C30.3252 24.5803 31.8839 24.2363 32.9843 24.2363C34.041 24.2363 34.6746 24.5532 34.6746 24.5532C34.6746 24.5532 35.7493 25.2272 36.6826 25.2272C36.711 25.2272 36.738 25.2223 36.7665 25.221C37.4487 25.1891 38.0338 24.7737 38.0338 23.4251Z" fill="#F5FAEB"/>
<path d="M20.5001 6.49403C24.367 6.84213 20.5001 0 20.5001 0C20.5001 0 16.6332 6.146 20.5001 6.49403Z" fill="#F5FAEB"/>
</svg>
